<svg width="18" height="18" viewBox="0 0 18 18" fill="none" xmlns="http://www.w3.org/2000/svg">
<g id="fi_5993921">
<path id="Vector" d="M13.5 16.3125H6.75C6.30245 16.3125 5.87322 16.1347 5.55676 15.8182C5.24029 15.5018 5.0625 15.0726 5.0625 14.625V5.625C5.0625 5.17745 5.24029 4.74822 5.55676 4.43176C5.87322 4.11529 6.30245 3.9375 6.75 3.9375H13.5C13.9476 3.9375 14.3768 4.11529 14.6932 4.43176C15.0097 4.74822 15.1875 5.17745 15.1875 5.625V14.625C15.1875 15.0726 15.0097 15.5018 14.6932 15.8182C14.3768 16.1347 13.9476 16.3125 13.5 16.3125ZM6.75 5.0625C6.60082 5.0625 6.45774 5.12176 6.35225 5.22725C6.24676 5.33274 6.1875 5.47582 6.1875 5.625V14.625C6.1875 14.7742 6.24676 14.9173 6.35225 15.0227C6.45774 15.1282 6.60082 15.1875 6.75 15.1875H13.5C13.6492 15.1875 13.7923 15.1282 13.8977 15.0227C14.0032 14.9173 14.0625 14.7742 14.0625 14.625V5.625C14.0625 5.47582 14.0032 5.33274 13.8977 5.22725C13.7923 5.12176 13.6492 5.0625 13.5 5.0625H6.75Z" fill="#E5E7EB"/>
<path id="Vector_2" d="M3.375 10.6875C3.22582 10.6875 3.08274 10.6282 2.97725 10.5227C2.87176 10.4173 2.8125 10.2742 2.8125 10.125V3.375C2.8125 2.92745 2.99029 2.49822 3.30676 2.18176C3.62322 1.86529 4.05245 1.6875 4.5 1.6875H10.125C10.2742 1.6875 10.4173 1.74676 10.5227 1.85225C10.6282 1.95774 10.6875 2.10082 10.6875 2.25C10.6875 2.39918 10.6282 2.54226 10.5227 2.64775C10.4173 2.75324 10.2742 2.8125 10.125 2.8125H4.5C4.35082 2.8125 4.20774 2.87176 4.10225 2.97725C3.99676 3.08274 3.9375 3.22582 3.9375 3.375V10.125C3.9375 10.2742 3.87824 10.4173 3.77275 10.5227C3.66726 10.6282 3.52418 10.6875 3.375 10.6875Z" fill="#E5E7EB"/>
</g>
</svg>
