<svg width="65" height="65" viewBox="0 0 65 65" fill="none" xmlns="http://www.w3.org/2000/svg">
<g id="delivery-drone 1" clip-path="url(#clip0_1309_1267)">
<g id="Group">
<path id="Vector" d="M32.3908 63.3882C49.5107 63.3882 63.3891 49.5099 63.3891 32.39C63.3891 15.2701 49.5107 1.39175 32.3908 1.39175C15.271 1.39175 1.39258 15.2701 1.39258 32.39C1.39258 49.5099 15.271 63.3882 32.3908 63.3882Z" fill="#00A4FB"/>
<path id="Vector_2" d="M53.7712 36.6398H52.532C51.4844 36.6391 50.6354 35.7897 50.6354 34.7419C50.6354 33.8463 51.2559 33.0955 52.0904 32.8961H58.8332C59.8814 32.8961 60.7311 32.0463 60.7311 30.9982C60.7311 29.9501 59.8814 29.1004 58.8332 29.1004H41.5346C40.4865 29.1004 39.6367 29.9501 39.6367 30.9982C39.6367 32.0463 40.4865 32.8961 41.5346 32.8961H46.7351C47.5696 33.0955 48.1902 33.8463 48.1902 34.7419C48.1902 35.7897 47.3411 36.6391 46.2936 36.6398H41.5347C40.4866 36.6398 39.6368 37.4895 39.6368 38.5376C39.6368 39.5857 40.4866 40.4355 41.5347 40.4355H53.7714C54.8195 40.4355 55.6693 39.5857 55.6693 38.5376C55.669 37.4895 54.8194 36.6398 53.7712 36.6398Z" fill="#49B6FC"/>
<path id="Vector_3" d="M24.0388 37.3244C24.0388 38.3725 23.1891 39.2223 22.141 39.2223H15.7433C14.6952 39.2223 13.8455 40.072 13.8455 41.1201C13.8455 42.1679 14.6946 43.0173 15.7421 43.018H20.501C21.5491 43.018 22.3988 43.8677 22.3988 44.9158C22.3988 45.964 21.5491 46.8137 20.501 46.8137H9.04721C7.99909 46.8137 7.14936 45.964 7.14936 44.9158C7.14936 43.8677 7.99909 43.018 9.04721 43.018H9.50345C10.5511 43.0173 11.4 42.1679 11.4 41.1201C11.4 40.072 10.5503 39.2223 9.50219 39.2223H6.62441C5.57629 39.2223 4.72656 38.3725 4.72656 37.3244C4.72656 36.2763 5.57629 35.4266 6.62441 35.4266H22.141C23.1891 35.4266 24.0388 36.2763 24.0388 37.3244Z" fill="#49B6FC"/>
<path id="Vector_4" d="M27.2022 8.85663H18.1674C17.1193 8.85663 16.2695 9.70636 16.2695 10.7545C16.2695 11.8026 17.1193 12.6523 18.1674 12.6523H27.2022C28.2503 12.6523 29.1 11.8026 29.1 10.7545C29.1 9.70636 28.2503 8.85663 27.2022 8.85663Z" fill="#49B6FC"/>
<path id="Vector_5" d="M45.6278 58.0931H19.1548C18.5839 58.0931 18.1211 57.6303 18.1211 57.0594V53.9878C18.1211 53.4169 18.5839 52.9541 19.1548 52.9541H45.6278C46.1987 52.9541 46.6615 53.4169 46.6615 53.9878V57.0594C46.6615 57.6303 46.1987 58.0931 45.6278 58.0931Z" fill="#00429C"/>
<path id="Vector_6" d="M25.3191 55.8678H17.1754C16.4766 55.8678 15.9102 55.3014 15.9102 54.6026V31.778C15.9102 31.0792 16.4766 30.5128 17.1754 30.5128H25.3191C26.0179 30.5128 26.5843 31.0792 26.5843 31.778V54.6026C26.5843 55.3012 26.0179 55.8678 25.3191 55.8678Z" fill="#F8BB5E"/>
<path id="Vector_7" d="M47.6054 55.8678H24.7809C24.0821 55.8678 23.5156 55.3014 23.5156 54.6026V31.778C23.5156 31.0792 24.0821 30.5128 24.7809 30.5128H28.5572L29.8488 31.3796H34.9312L36.2228 30.5128H47.6056C48.3044 30.5128 48.8708 31.0792 48.8708 31.778V54.6026C48.8707 55.3012 48.3041 55.8678 47.6054 55.8678Z" fill="#FBC56D"/>
<path id="Vector_8" d="M35.5914 40.0946H29.1912C28.8419 40.0946 28.5586 39.8113 28.5586 39.462V30.5128H36.224V39.462C36.224 39.8113 35.9407 40.0946 35.5914 40.0946Z" fill="#DCA050"/>
<path id="Vector_9" d="M44.4299 44.9337H39.3689C39.0196 44.9337 38.7363 45.2169 38.7363 45.5663V50.6272C38.7363 50.9765 39.0196 51.2598 39.3689 51.2598H44.4299C44.7792 51.2598 45.0625 50.9765 45.0625 50.6272V45.5663C45.0625 45.2169 44.7793 44.9337 44.4299 44.9337Z" fill="#DCA050"/>
<path id="Vector_10" d="M36.1271 44.9337H31.0662C30.7169 44.9337 30.4336 45.2169 30.4336 45.5663V50.6272C30.4336 50.9765 30.7169 51.2598 31.0662 51.2598H36.1271C36.4765 51.2598 36.7598 50.9765 36.7598 50.6272V45.5663C36.7598 45.2169 36.4765 44.9337 36.1271 44.9337Z" fill="#EBAE56"/>
<path id="Vector_11" d="M44.6888 57.2021C44.1692 57.2021 43.7453 56.7833 43.7401 56.2626L43.4953 31.3822L32.3893 26.3506L21.2833 31.3824L21.0385 56.2627C21.0333 56.7867 20.5996 57.2117 20.0802 57.2022C19.5562 57.1971 19.1356 56.768 19.1407 56.244L19.3914 30.7583C19.3951 30.3893 19.6125 30.0556 19.9488 29.9033L31.9976 24.4444C32.2465 24.3317 32.5319 24.3317 32.7807 24.4444L44.8295 29.9033C45.1658 30.0556 45.3831 30.3893 45.3868 30.7583L45.6376 56.244C45.6426 56.7681 45.2221 57.1971 44.698 57.2022C44.6952 57.2021 44.6919 57.2021 44.6888 57.2021Z" fill="#00429C"/>
<path id="Vector_12" d="M9.0874 21.6517H4.82862C4.25774 21.6517 3.79492 21.1889 3.79492 20.618V13.8287C3.79492 13.2579 4.25774 12.795 4.82862 12.795H9.0874C9.65827 12.795 10.1211 13.2579 10.1211 13.8287V20.618C10.1211 21.1889 9.65827 21.6517 9.0874 21.6517Z" fill="#0055CA"/>
<path id="Vector_13" d="M16.6788 26.5511H11.1548C10.5839 26.5511 10.1211 26.0882 10.1211 25.5174V22.0882C10.1211 21.5173 10.5839 21.0545 11.1548 21.0545H16.6788C17.2497 21.0545 17.7125 21.5173 17.7125 22.0882V25.5174C17.7125 26.0882 17.2497 26.5511 16.6788 26.5511Z" fill="#00429C"/>
<path id="Vector_14" d="M53.6252 26.5511H16.2173C15.6464 26.5511 15.1836 26.0882 15.1836 25.5174V22.0882C15.1836 21.5173 15.6464 21.0545 16.2173 21.0545H53.6252C54.1961 21.0545 54.6589 21.5173 54.6589 22.0882V25.5174C54.6589 26.0882 54.1961 26.5511 53.6252 26.5511Z" fill="#0055CA"/>
<path id="Vector_15" d="M59.9507 21.6517H55.6919C55.121 21.6517 54.6582 21.1889 54.6582 20.618V13.8287C54.6582 13.2579 55.121 12.795 55.6919 12.795H59.9507C60.5216 12.795 60.9844 13.2579 60.9844 13.8287V20.618C60.9844 21.1889 60.5216 21.6517 59.9507 21.6517Z" fill="#0055CA"/>
<path id="Vector_16" d="M35.6562 7.95287C35.7526 7.92832 35.748 7.79028 35.6505 7.77055C34.5967 7.55773 33.5062 7.44601 32.3896 7.44601C24.1792 7.44601 17.3793 13.4851 16.1895 21.3636H23.5154C24.5022 14.8297 29.3476 9.56085 35.6562 7.95287Z" fill="#FF4343"/>
<path id="Vector_17" d="M35.5626 7.75296C28.825 9.075 23.5677 14.5266 22.5352 21.3636H48.59C47.5574 14.5266 42.3001 9.075 35.5626 7.75296Z" fill="#FF5757"/>
<g id="Group_2">
<path id="Vector_18" d="M63.7463 22.3139H1.0337C0.462823 22.3139 0 21.8511 0 21.2802V20.8171C0 20.2463 0.462823 19.7834 1.0337 19.7834H63.7463C64.3172 19.7834 64.78 20.2463 64.78 20.8171V21.2802C64.78 21.8511 64.3172 22.3139 63.7463 22.3139Z" fill="#00429C"/>
<path id="Vector_19" d="M34.7732 8.46898H30.0083C29.4374 8.46898 28.9746 8.00615 28.9746 7.43528V6.9722C28.9746 6.40133 29.4374 5.93851 30.0083 5.93851H34.7732C35.3441 5.93851 35.8069 6.40133 35.8069 6.9722V7.43528C35.8069 8.00615 35.3441 8.46898 34.7732 8.46898Z" fill="#00429C"/>
<path id="Vector_20" d="M12.8839 16.3726H1.0337C0.462823 16.3726 0 15.9098 0 15.3389V14.8759C0 14.305 0.462823 13.8422 1.0337 13.8422H12.8839C13.4548 13.8422 13.9176 14.305 13.9176 14.8759V15.3389C13.9176 15.9098 13.4548 16.3726 12.8839 16.3726Z" fill="#00429C"/>
<path id="Vector_21" d="M63.7472 16.3726H51.897C51.3261 16.3726 50.8633 15.9098 50.8633 15.3389V14.8759C50.8633 14.305 51.3261 13.8422 51.897 13.8422H63.7472C64.318 13.8422 64.7809 14.305 64.7809 14.8759V15.3389C64.7809 15.9098 64.318 16.3726 63.7472 16.3726Z" fill="#00429C"/>
</g>
<path id="Vector_22" d="M32.3903 25.3195C32.9144 25.3195 33.3393 24.8946 33.3393 24.3706C33.3393 23.8465 32.9144 23.4216 32.3903 23.4216C31.8663 23.4216 31.4414 23.8465 31.4414 24.3706C31.4414 24.8946 31.8663 25.3195 32.3903 25.3195Z" fill="#FF5757"/>
<path id="Vector_23" d="M36.5017 25.3195C37.0257 25.3195 37.4506 24.8946 37.4506 24.3706C37.4506 23.8465 37.0257 23.4216 36.5017 23.4216C35.9776 23.4216 35.5527 23.8465 35.5527 24.3706C35.5527 24.8946 35.9776 25.3195 36.5017 25.3195Z" fill="#00429C"/>
<path id="Vector_24" d="M28.2771 25.3047C28.8011 25.3047 29.226 24.8798 29.226 24.3558C29.226 23.8317 28.8011 23.4068 28.2771 23.4068C27.753 23.4068 27.3281 23.8317 27.3281 24.3558C27.3281 24.8798 27.753 25.3047 28.2771 25.3047Z" fill="white"/>
</g>
</g>
<defs>
<clipPath id="clip0_1309_1267">
<rect width="64.78" height="64.78" fill="white"/>
</clipPath>
</defs>
</svg>
