<svg width="18" height="18" viewBox="0 0 18 18" fill="none" xmlns="http://www.w3.org/2000/svg">
<g clip-path="url(#clip0_1238_2230)">
<path d="M6.50838 7.14175C5.46751 7.14175 4.62067 8.0747 4.62067 9.22142C4.62067 10.3681 5.46751 11.3011 6.50838 11.3011C7.54929 11.3011 8.39617 10.3681 8.39617 9.22142C8.39617 8.0747 7.54929 7.14175 6.50838 7.14175ZM6.50838 10.2464C6.04906 10.2464 5.67535 9.78659 5.67535 9.22142C5.67535 8.65625 6.04906 8.19644 6.50838 8.19644C6.96773 8.19644 7.34148 8.65625 7.34148 9.22142C7.34148 9.78659 6.96773 10.2464 6.50838 10.2464Z" fill="#A0A0AB"/>
<path d="M11.4916 7.14175C10.4507 7.14175 9.60382 8.0747 9.60382 9.22142C9.60382 10.3681 10.4507 11.3011 11.4916 11.3011C12.5325 11.3011 13.3793 10.3681 13.3793 9.22142C13.3793 8.0747 12.5325 7.14175 11.4916 7.14175ZM11.4916 10.2464C11.0323 10.2464 10.6585 9.78659 10.6585 9.22142C10.6585 8.65625 11.0323 8.19644 11.4916 8.19644C11.9509 8.19644 12.3246 8.65625 12.3246 9.22142C12.3246 9.78659 11.9509 10.2464 11.4916 10.2464Z" fill="#A0A0AB"/>
<path d="M17.9992 12.7468C17.9868 12.5239 17.6714 7.24989 15.6687 4.095C15.6277 4.03049 15.5732 3.97561 15.5089 3.93427C13.0325 2.33961 11.3457 2.34418 11.2751 2.3439C11.0706 2.34661 10.8944 2.46558 10.8093 2.63749L9.95855 4.26783C9.64165 4.24709 9.32169 4.23633 9.00001 4.23633C8.6784 4.23633 8.35841 4.24709 8.04151 4.26783L7.19172 2.63939C7.10695 2.46649 6.93022 2.34664 6.72488 2.34394C6.6539 2.34352 4.96727 2.33979 2.49115 3.9343C2.42692 3.97568 2.37239 4.03052 2.33143 4.09504C0.328653 7.24989 0.0132662 12.5239 0.00082092 12.7468C-0.00698377 12.8866 0.04111 13.0238 0.13452 13.1281C0.227403 13.2317 2.43377 15.6561 5.48347 15.6561C5.49711 15.6561 5.51114 15.6561 5.52482 15.656C5.68509 15.6548 5.83609 15.5809 5.93527 15.455L7.34197 13.6698C7.88225 13.7315 8.4372 13.7637 9.00001 13.7637C9.56286 13.7637 10.1178 13.7315 10.6581 13.6698L12.0648 15.455C12.1639 15.5809 12.3149 15.6548 12.4752 15.656C12.4891 15.6561 12.5027 15.6561 12.5166 15.6561C15.566 15.6561 17.7727 13.2317 17.8655 13.1281C17.9589 13.0238 18.007 12.8866 17.9992 12.7468ZM12.731 14.5965L11.8516 13.4803C13.1903 13.2049 14.3919 12.7363 15.3298 12.107C15.5717 11.9448 15.6362 11.6172 15.474 11.3753C15.3118 11.1335 14.984 11.0688 14.7423 11.2312C13.3424 12.1704 11.2494 12.709 9.00001 12.709C6.75071 12.709 4.65772 12.1704 3.25777 11.2313C3.01586 11.069 2.68831 11.1336 2.52606 11.3755C2.36381 11.6173 2.42836 11.9449 2.67024 12.1072C3.6082 12.7363 4.80977 13.205 6.14849 13.4804L5.26906 14.5965C3.20422 14.5007 1.56102 13.0567 1.07034 12.5775C1.15226 11.5557 1.5773 7.3414 3.16084 4.75808C4.71584 3.77652 5.88932 3.50353 6.41343 3.42766L6.91377 4.38641C5.73741 4.55818 4.63529 4.87385 3.69652 5.31584C3.43302 5.43987 3.31999 5.75406 3.44402 6.01759C3.56809 6.28105 3.88228 6.39404 4.14574 6.27008C5.48681 5.63871 7.21077 5.29102 9.00001 5.29102C10.7894 5.29102 12.5134 5.63878 13.8544 6.27022C13.9269 6.30439 14.0033 6.3206 14.0786 6.3206C14.2765 6.3206 14.4662 6.20863 14.5561 6.01777C14.6801 5.7543 14.5671 5.44008 14.3036 5.31601C13.3648 4.87399 12.2627 4.55825 11.0862 4.38648L11.5866 3.42773C12.1106 3.5036 13.2842 3.77659 14.8392 4.75815C16.421 7.33876 16.8474 11.5574 16.9296 12.5784C16.4402 13.0586 14.8043 14.5014 12.731 14.5965Z" fill="#A0A0AB"/>
</g>
<defs>
<clipPath id="clip0_1238_2230">
<rect width="18" height="18" fill="white"/>
</clipPath>
</defs>
</svg>
