<svg width="65" height="65" viewBox="0 0 65 65" fill="none" xmlns="http://www.w3.org/2000/svg">
<g id="gaming 1" clip-path="url(#clip0_1309_1294)">
<g id="Group">
<path id="Vector" d="M64.78 32.39C64.78 36.1389 64.1436 39.7385 62.9707 43.0876C62.0577 45.6985 57.7406 43.8109 56.2264 46.0679C54.5575 48.5555 55.6321 55.1447 53.3562 57.0798C47.7057 61.8813 40.3863 64.78 32.39 64.78C14.5021 64.78 0 50.2779 0 32.39C0 14.5021 14.5021 0 32.39 0C50.2779 0 64.78 14.5021 64.78 32.39Z" fill="#C476DD"/>
<g id="Group_2">
<g id="Group_3">
<path id="Vector_2" d="M53.3309 32.2675L50.4766 16.0033C49.7002 11.5788 45.8573 8.35156 41.3652 8.35156H35.6268L27.9137 12.8382L20.2006 8.35156H14.4622C9.97016 8.35156 6.12726 11.5788 5.35079 16.0033L2.49642 32.2675C1.7102 36.7477 5.59182 40.6584 10.0777 39.9059L16.6877 38.7968C20.73 38.1185 23.8946 34.9467 24.5638 30.9028L24.6381 30.4529C24.9033 28.8504 26.2892 27.675 27.9136 27.675C29.538 27.675 30.9238 28.8504 31.189 30.4529L31.2634 30.9028C31.9325 34.9467 35.0972 38.1185 39.1395 38.7968L45.7495 39.9059C50.2355 40.6584 54.1171 36.7477 53.3309 32.2675Z" fill="#FCF8F2"/>
<path id="Vector_3" d="M14.4619 8.35245H17.0405C12.5489 8.35245 8.70637 11.5788 7.92952 16.0033L5.07515 32.2679C4.43367 35.9244 6.90215 39.2014 10.2702 39.8745L10.0779 39.9061C5.59136 40.6589 1.70962 36.7481 2.4966 32.2679L5.35097 16.0033C6.12656 11.5788 9.97034 8.35245 14.4619 8.35245Z" fill="#EAEAEA"/>
<g id="Group_4">
<path id="Vector_4" d="M20.0244 18.9237H17.8336V16.7329C17.8336 15.7495 17.0365 14.9524 16.0531 14.9524H14.1602C13.1769 14.9524 12.3798 15.7495 12.3798 16.7329V18.9237H10.1888C9.20543 18.9237 8.4082 19.7208 8.4082 20.7042V22.5971C8.4082 23.5804 9.20543 24.3775 10.1888 24.3775H12.3796V26.5684C12.3796 27.5518 13.1769 28.3489 14.1601 28.3489H16.053C17.0363 28.3489 17.8334 27.5516 17.8334 26.5684V24.3775H20.0243C21.0077 24.3775 21.8048 23.5804 21.8048 22.5971V20.7042C21.8049 19.7208 21.0078 18.9237 20.0244 18.9237Z" fill="#5E5EBC"/>
<g id="Group_5">
<path id="Vector_5" d="M10.2732 20.7042V22.5982C10.2732 23.5813 11.0715 24.3784 12.0546 24.3784H10.1884C9.2053 24.3784 8.4082 23.5813 8.4082 22.5982V20.7042C8.4082 19.7211 9.2053 18.924 10.1884 18.924H12.0546C11.0715 18.9241 10.2732 19.7211 10.2732 20.7042Z" fill="#3C3C99"/>
<path id="Vector_6" d="M16.024 28.3501H14.1591C13.176 28.3501 12.3789 27.553 12.3789 26.5687V24.3785H14.2439V26.5687C14.2439 27.5529 15.041 28.3501 16.024 28.3501Z" fill="#3C3C99"/>
<path id="Vector_7" d="M14.2439 18.9241H12.3789V16.734C12.3789 15.7496 13.176 14.9525 14.1591 14.9525H16.024C15.041 14.9525 14.2439 15.7496 14.2439 16.734V18.9241Z" fill="#3C3C99"/>
</g>
</g>
<g id="Group_6">
<g id="Group_7">
<path id="Vector_8" d="M35.1948 28.1235C36.5526 28.1235 37.6533 27.0228 37.6533 25.665C37.6533 24.3072 36.5526 23.2065 35.1948 23.2065C33.837 23.2065 32.7363 24.3072 32.7363 25.665C32.7363 27.0228 33.837 28.1235 35.1948 28.1235Z" fill="#FF645C"/>
<path id="Vector_9" d="M39.9077 23.5918C41.2655 23.5918 42.3662 22.4911 42.3662 21.1333C42.3662 19.7755 41.2655 18.6748 39.9077 18.6748C38.5499 18.6748 37.4492 19.7755 37.4492 21.1333C37.4492 22.4911 38.5499 23.5918 39.9077 23.5918Z" fill="#C476DD"/>
<path id="Vector_10" d="M44.6225 19.0601C45.9803 19.0601 47.081 17.9594 47.081 16.6016C47.081 15.2439 45.9803 14.1432 44.6225 14.1432C43.2648 14.1432 42.1641 15.2439 42.1641 16.6016C42.1641 17.9594 43.2648 19.0601 44.6225 19.0601Z" fill="#FFD939"/>
</g>
<g id="Group_8">
<path id="Vector_11" d="M35.948 28.0042C35.7101 28.0813 35.4575 28.1231 35.1954 28.1231C33.8375 28.1231 32.7363 27.0233 32.7363 25.6653C32.7363 24.3073 33.8376 23.2062 35.1954 23.2062C35.4576 23.2062 35.7103 23.2481 35.948 23.3251C34.959 23.6426 34.2428 24.5709 34.2428 25.6654C34.2428 26.7597 34.959 27.6866 35.948 28.0042Z" fill="#FF4C48"/>
<path id="Vector_12" d="M40.661 23.4724C40.4231 23.5494 40.1706 23.5913 39.9071 23.5913C38.5491 23.5913 37.4492 22.4914 37.4492 21.1335C37.4492 19.7755 38.5491 18.6743 39.9071 18.6743C40.1705 18.6743 40.4231 18.7162 40.661 18.7933C39.672 19.1095 38.9559 20.0378 38.9559 21.1336C38.9559 22.2293 39.672 23.1562 40.661 23.4724Z" fill="#B166CC"/>
<path id="Vector_13" d="M45.3757 18.9406C45.1379 19.0176 44.8852 19.0595 44.6232 19.0595C43.2652 19.0595 42.1641 17.9596 42.1641 16.6016C42.1641 15.2437 43.2652 14.1438 44.6232 14.1438C44.8853 14.1438 45.138 14.1857 45.3757 14.2627C44.3867 14.5803 43.6706 15.5072 43.6706 16.6016C43.6706 17.6961 44.3867 18.623 45.3757 18.9406Z" fill="#FFC23B"/>
</g>
</g>
<path id="Vector_14" d="M32.0309 17.3241H23.7979C21.8114 17.3241 20.2012 15.7138 20.2012 13.7274V8.35245H35.6274V13.7274C35.6275 15.7138 34.0173 17.3241 32.0309 17.3241Z" fill="#5E5EBC"/>
<path id="Vector_15" d="M26.1794 17.3245H23.7982C21.8118 17.3245 20.2012 15.7138 20.2012 13.7274V8.35269H22.5836V13.7274C22.5836 15.7138 24.1943 17.3245 26.1794 17.3245Z" fill="#3C3C99"/>
</g>
<g id="Group_9">
<path id="Vector_16" d="M62.9716 43.0876C61.0523 48.5761 57.6981 53.3891 53.3571 57.0798L49.9916 56.5142C45.9492 55.8361 42.7848 52.6641 42.1155 48.6204L42.0408 48.1713C41.908 47.3704 41.4955 46.6745 40.9135 46.1811C40.3302 45.6864 39.5774 45.3928 38.7652 45.3928C37.1406 45.3928 35.7552 46.5682 35.4907 48.1713L35.4161 48.6204C34.7468 52.6641 31.5824 55.8361 27.54 56.5142L20.9291 57.6238C16.4439 58.3767 12.5621 54.4658 13.3479 49.9856L16.2022 33.721C16.9791 29.2965 20.8216 26.0702 25.3144 26.0702H31.0523L38.7652 30.5567L46.4793 26.0702H52.2171C56.7087 26.0702 60.5525 29.2965 61.3281 33.721L62.9716 43.0876Z" fill="#FCF8F2"/>
<path id="Vector_17" d="M25.3135 26.0703H27.892C23.4004 26.0703 19.5579 29.2966 18.7811 33.7212L15.9267 49.9857C15.2852 53.6423 17.7537 56.9192 21.1218 57.5923L20.9294 57.624C16.4429 58.3768 12.5612 54.4659 13.3482 49.9857L16.2025 33.7212C16.9781 29.2966 20.8219 26.0703 25.3135 26.0703Z" fill="#EAEAEA"/>
<g id="Group_10">
<path id="Vector_18" d="M30.8759 36.6417H28.685V34.4508C28.685 33.4675 27.8879 32.6704 26.9046 32.6704H25.0116C24.0283 32.6704 23.2312 33.4675 23.2312 34.4508V36.6417H21.0403C20.057 36.6417 19.2598 37.4388 19.2598 38.4221V40.3151C19.2598 41.2984 20.057 42.0955 21.0403 42.0955H23.2312V44.2864C23.2312 45.2697 24.0284 46.0668 25.0116 46.0668H26.9046C27.8879 46.0668 28.685 45.2696 28.685 44.2864V42.0956H30.8759C31.8592 42.0956 32.6563 41.2985 32.6563 40.3152V38.4223C32.6563 37.4388 31.8592 36.6417 30.8759 36.6417Z" fill="#5E5EBC"/>
<g id="Group_11">
<path id="Vector_19" d="M21.1247 38.4221V40.3162C21.1247 41.2993 21.9231 42.0964 22.9062 42.0964H21.04C20.0569 42.0964 19.2598 41.2993 19.2598 40.3162V38.4221C19.2598 37.439 20.0569 36.6419 21.04 36.6419H22.9062C21.923 36.6419 21.1247 37.439 21.1247 38.4221Z" fill="#3C3C99"/>
<path id="Vector_20" d="M26.8756 46.0679H25.0107C24.0276 46.0679 23.2305 45.2708 23.2305 44.2865V42.0964H25.0954V44.2865C25.0954 45.2708 25.8925 46.0679 26.8756 46.0679Z" fill="#3C3C99"/>
<path id="Vector_21" d="M25.0954 36.6419H23.2305V34.4518C23.2305 33.4675 24.0276 32.6704 25.0107 32.6704H26.8756C25.8925 32.6704 25.0954 33.4675 25.0954 34.4518V36.6419Z" fill="#3C3C99"/>
</g>
</g>
<g id="Group_12">
<g id="Group_13">
<path id="Vector_22" d="M46.0464 45.8415C47.4041 45.8415 48.5048 44.7408 48.5048 43.383C48.5048 42.0252 47.4041 40.9245 46.0464 40.9245C44.6886 40.9245 43.5879 42.0252 43.5879 43.383C43.5879 44.7408 44.6886 45.8415 46.0464 45.8415Z" fill="#FF645C"/>
<path id="Vector_23" d="M50.7593 41.3098C52.117 41.3098 53.2177 40.2091 53.2177 38.8513C53.2177 37.4935 52.117 36.3928 50.7593 36.3928C49.4015 36.3928 48.3008 37.4935 48.3008 38.8513C48.3008 40.2091 49.4015 41.3098 50.7593 41.3098Z" fill="#C476DD"/>
<path id="Vector_24" d="M55.4741 36.7781C56.8319 36.7781 57.9326 35.6774 57.9326 34.3196C57.9326 32.9618 56.8319 31.8611 55.4741 31.8611C54.1163 31.8611 53.0156 32.9618 53.0156 34.3196C53.0156 35.6774 54.1163 36.7781 55.4741 36.7781Z" fill="#FFD939"/>
</g>
<g id="Group_14">
<path id="Vector_25" d="M46.7996 45.7222C46.5617 45.7992 46.309 45.8411 46.047 45.8411C44.689 45.8411 43.5879 44.7412 43.5879 43.3833C43.5879 42.0253 44.6891 40.9242 46.047 40.9242C46.3092 40.9242 46.5618 40.966 46.7996 41.0431C45.8105 41.3605 45.0944 42.2888 45.0944 43.3834C45.0943 44.4777 45.8104 45.4046 46.7996 45.7222Z" fill="#FF4C48"/>
<path id="Vector_26" d="M51.5126 41.1904C51.2747 41.2674 51.0222 41.3093 50.7586 41.3093C49.4007 41.3093 48.3008 40.2094 48.3008 38.8514C48.3008 37.4935 49.4007 36.3923 50.7586 36.3923C51.0221 36.3923 51.2747 36.4342 51.5126 36.5113C50.5235 36.8274 49.8074 37.7558 49.8074 38.8516C49.8074 39.9473 50.5234 40.8742 51.5126 41.1904Z" fill="#B166CC"/>
<path id="Vector_27" d="M56.2273 36.6584C55.9894 36.7355 55.7368 36.7774 55.4747 36.7774C54.1168 36.7774 53.0156 35.6775 53.0156 34.3195C53.0156 32.9615 54.1168 31.8617 55.4747 31.8617C55.7369 31.8617 55.9896 31.9035 56.2273 31.9806C55.2383 32.2982 54.5221 33.2251 54.5221 34.3195C54.5221 35.4141 55.2383 36.341 56.2273 36.6584Z" fill="#FFC23B"/>
</g>
</g>
<path id="Vector_28" d="M42.8824 35.0421H34.6494C32.663 35.0421 31.0527 33.4318 31.0527 31.4454V26.0704H46.479V31.4454C46.479 33.4318 44.8687 35.0421 42.8824 35.0421Z" fill="#5E5EBC"/>
<path id="Vector_29" d="M37.031 35.0425H34.6498C32.6634 35.0425 31.0527 33.4318 31.0527 31.4454V26.0707H33.4352V31.4454C33.4352 33.4318 35.0458 35.0425 37.031 35.0425Z" fill="#3C3C99"/>
</g>
</g>
</g>
</g>
<defs>
<clipPath id="clip0_1309_1294">
<rect width="64.78" height="64.78" fill="white"/>
</clipPath>
</defs>
</svg>
