<svg width="32" height="32" viewBox="0 0 32 32" fill="none" xmlns="http://www.w3.org/2000/svg">
<g id="fi_3940417" clip-path="url(#clip0_1238_2306)">
<g id="Group">
<path id="Vector" d="M23.0826 30.3497C28.3661 27.7369 32 22.2933 32 16C32 7.16344 24.8366 0 16 0C7.16344 0 0 7.16344 0 16C0 22.2933 3.63394 27.7369 8.91744 30.3497H23.0826Z" fill="#1DD882"/>
<path id="Vector_2" d="M31.5235 12.1128L22.955 3.53607L22.8167 3.40594L20.4779 12.5466L11.4429 3.50338L11.3372 3.40594L9.40759 21.1918L10.1747 21.9588L11.6641 21.4993L18.7797 22.3544L23.0825 30.3488C28.366 27.7363 32 22.2932 32 16C32 14.6592 31.8342 13.3573 31.5235 12.1128Z" fill="#0CAA5F"/>
<g id="Group_2">
<path id="Vector_3" d="M12.7861 8.56381C12.7861 12.2971 11.6552 16.5014 10.2601 16.5014C8.86507 16.5014 7.73413 12.2971 7.73413 8.56381C7.73413 4.83056 8.86507 2.98206 10.2601 2.98206C11.6552 2.98206 12.7861 4.83056 12.7861 8.56381Z" fill="#E9EDF5"/>
</g>
<g id="Group_3">
<path id="Vector_4" d="M11.6635 9.10543C11.6416 11.1692 10.9918 13.4867 10.2206 13.4785C9.44938 13.4703 8.84888 11.1395 8.87082 9.07574C8.89276 7.01199 9.52876 5.99681 10.2999 6.00499C11.0711 6.01324 11.6854 7.04168 11.6635 9.10543Z" fill="#CDD2E1"/>
</g>
<g id="Group_4">
<path id="Vector_5" d="M19.2139 8.56381C19.2139 12.2971 20.3448 16.5014 21.7399 16.5014C23.1349 16.5014 24.2659 12.2971 24.2659 8.56381C24.2659 4.83056 23.1349 2.98206 21.7399 2.98206C20.3448 2.98212 19.2139 4.83056 19.2139 8.56381Z" fill="#CDD2E1"/>
</g>
<g id="Group_5">
<path id="Vector_6" d="M20.3365 9.10543C20.3584 11.1692 21.0083 13.4867 21.7794 13.4785C22.5506 13.4703 23.1511 11.1395 23.1292 9.07574C23.1073 7.01199 22.4713 5.99681 21.7001 6.00499C20.9289 6.01324 20.3146 7.04168 20.3365 9.10543Z" fill="#AFB4C8"/>
</g>
<path id="Vector_7" d="M11.5186 28.9715C11.5186 26.4965 13.525 24.4902 15.9999 24.4902C18.4749 24.4902 20.4813 26.4965 20.4813 28.9715V31.3627C21.3869 31.099 22.2599 30.7583 23.0914 30.3465L21.6288 20.5845H10.3711L8.90845 30.3465C9.74001 30.7583 10.6129 31.099 11.5186 31.3627V28.9715Z" fill="#E9EDF5"/>
<path id="Vector_8" d="M16 24.4902C18.475 24.4902 20.4813 26.4965 20.4813 28.9715V31.3627C21.387 31.099 22.26 30.7583 23.0915 30.3465L21.6288 20.5845H15.9991V24.4902C15.9995 24.4902 15.9997 24.4902 16 24.4902Z" fill="#CDD2E1"/>
<g id="Group_6">
<path id="Vector_9" d="M23.8463 17.9485C23.8463 21.7637 20.3334 23.1678 16 23.1678C11.6666 23.1678 8.15369 21.7637 8.15369 17.9485C8.15369 14.1334 11.6666 9.7359 16 9.7359C20.3334 9.7359 23.8463 14.1335 23.8463 17.9485Z" fill="white"/>
</g>
<g id="Group_7">
<path id="Vector_10" d="M16 9.7359C15.9997 9.7359 15.9995 9.7359 15.9991 9.7359V23.1678H16C20.3334 23.1678 23.8463 21.7636 23.8463 17.9485C23.8463 14.1335 20.3334 9.7359 16 9.7359Z" fill="#E9EDF5"/>
</g>
<g id="Group_8">
<path id="Vector_11" d="M17.3702 18.2535C16.8334 18.2535 15.1667 18.2535 14.6299 18.2535C13.5705 18.2535 12.7118 19.1124 12.7118 20.1717C12.7118 21.231 13.5705 22.0898 14.6299 22.0898C15.1667 22.0898 15.651 21.8702 15.9992 21.5149C16.3473 21.8702 16.8334 22.0898 17.3702 22.0898C18.4295 22.0898 19.2883 21.231 19.2883 20.1717C19.2883 19.1123 18.4295 18.2535 17.3702 18.2535Z" fill="#E9EDF5"/>
</g>
<g id="Group_9">
<path id="Vector_12" d="M17.3701 18.2535C17.1016 18.2535 16.5503 18.2535 15.9991 18.2535V21.5149C15.9988 21.5152 15.9994 21.5146 15.9991 21.5149C16.3472 21.8702 16.8334 22.0898 17.3701 22.0898C18.4295 22.0898 19.2882 21.231 19.2882 20.1717C19.2882 19.1123 18.4295 18.2535 17.3701 18.2535Z" fill="#CDD2E1"/>
</g>
<g id="Group_10">
<path id="Vector_13" d="M17.6487 18.6989C17.6487 19.4335 16.9106 20.029 16 20.029C15.0894 20.029 14.3513 19.4335 14.3513 18.6989C14.3513 17.9643 15.0894 17.905 16 17.905C16.9106 17.905 17.6487 17.9643 17.6487 18.6989Z" fill="#414952"/>
</g>
<g id="Group_11">
<path id="Vector_14" d="M16 17.905C15.9997 17.905 15.9995 17.905 15.9991 17.905V20.0289H16C16.9106 20.0289 17.6487 19.4334 17.6487 18.6988C17.6487 17.9643 16.9106 17.905 16 17.905Z" fill="#23272B"/>
</g>
<g id="Group_12">
<g id="Group_13">
<path id="Vector_15" d="M12.3949 16.21C12.4897 15.6218 12.0896 15.068 11.5014 14.9733C10.9131 14.8785 10.3594 15.2786 10.2646 15.8668C10.1698 16.4551 10.5699 17.0088 11.1582 17.1036C11.7464 17.1984 12.3002 16.7983 12.3949 16.21Z" fill="#555A66"/>
</g>
<g id="Group_14">
<path id="Vector_16" d="M21.7177 16.2122C21.8124 15.6239 21.4124 15.0702 20.8241 14.9754C20.2358 14.8807 19.6821 15.2807 19.5874 15.869C19.4926 16.4573 19.8927 17.011 20.4809 17.1057C21.0692 17.2005 21.6229 16.8004 21.7177 16.2122Z" fill="#333940"/>
</g>
</g>
<g id="Group_15">
<path id="Vector_17" d="M16 24.4277C13.5251 24.4277 11.5187 26.434 11.5187 28.909V31.3639C12.9406 31.778 14.4444 32 16 32C17.5556 32 19.0594 31.778 20.4813 31.3639V28.909C20.4813 26.434 18.4749 24.4277 16 24.4277Z" fill="white"/>
</g>
<g id="Group_16">
<path id="Vector_18" d="M16 24.4277C15.9997 24.4277 15.9995 24.4277 15.9991 24.4277V32H16C17.5556 32 19.0594 31.778 20.4813 31.3639V28.909C20.4813 26.434 18.475 24.4277 16 24.4277Z" fill="#E9EDF5"/>
</g>
</g>
</g>
<defs>
<clipPath id="clip0_1238_2306">
<rect width="32" height="32" fill="white"/>
</clipPath>
</defs>
</svg>
