<svg width="24" height="24" viewBox="0 0 24 24" fill="none" xmlns="http://www.w3.org/2000/svg">
<g clip-path="url(#clip0_1238_2582)">
<path d="M22.6352 10.2267C22.2658 9.95435 21.8004 9.61417 21.7441 9.39192C21.7678 8.9617 21.8906 8.54283 22.103 8.16797C22.4286 7.42086 22.7646 6.64665 22.391 6.00284C22.0175 5.35902 21.1681 5.25469 20.3511 5.16807C19.9276 5.16524 19.5104 5.06565 19.1313 4.87696C18.9423 4.49653 18.8431 4.0778 18.8412 3.65301C18.7494 2.836 18.6544 1.99082 18.0065 1.61308C17.3585 1.23534 16.5832 1.56613 15.8361 1.89583C15.4609 2.10816 15.0417 2.23097 14.6112 2.25479C14.3858 2.19429 14.0467 1.73306 13.7764 1.36368C13.3027 0.725103 12.7695 0.000976562 11.9994 0.000976562C11.2294 0.000976562 10.6962 0.725103 10.2256 1.36368C9.9522 1.73409 9.61305 2.19845 9.3908 2.25582C8.96068 2.2299 8.5419 2.10723 8.16582 1.89686C7.41455 1.56608 6.64034 1.23637 5.99863 1.60785C5.35692 1.97933 5.24946 2.83077 5.15761 3.65296C5.15462 4.07628 5.05543 4.4934 4.86752 4.87275C4.48914 5.05876 4.07355 5.15648 3.65193 5.15863C2.8339 5.25044 1.98764 5.34542 1.61098 5.9934C1.23432 6.64137 1.56515 7.41568 1.89486 8.16382C2.10796 8.53989 2.23083 8.96028 2.25382 9.39192C2.19331 9.6173 1.73208 9.95748 1.36271 10.2267C0.724126 10.6962 0 11.2305 0 12.0005C0 12.7706 0.724126 13.3048 1.36378 13.7744C1.73316 14.0467 2.19855 14.3869 2.25489 14.6092C2.23122 15.0394 2.10835 15.4582 1.89593 15.8331C1.57038 16.5802 1.23441 17.3544 1.60795 17.9982C1.98148 18.6421 2.83087 18.7464 3.64787 18.833C4.07134 18.8358 4.48855 18.9354 4.86766 19.1241C5.05666 19.5045 5.1559 19.9233 5.15775 20.3481C5.24956 21.1651 5.34454 22.0103 5.99252 22.388C6.64049 22.7657 7.40951 22.4256 8.15766 22.1C8.53667 21.89 8.95833 21.7687 9.39099 21.7453C9.61637 21.8058 9.95547 22.267 10.2258 22.6364C10.6963 23.2749 11.2296 23.9991 11.9996 23.9991C12.7697 23.9991 13.3028 23.2749 13.7735 22.6364C14.0468 22.266 14.386 21.8016 14.6082 21.7442C15.0386 21.7686 15.4577 21.8914 15.8332 22.1032C16.5803 22.4287 17.3545 22.7627 17.9973 22.3922C18.64 22.0218 18.7464 21.1693 18.8383 20.3512C18.8413 19.9279 18.9405 19.5108 19.1284 19.1315C19.5074 18.9439 19.9242 18.8451 20.3471 18.8424C21.1651 18.7506 22.0114 18.6557 22.388 18.0077C22.7647 17.3597 22.4246 16.5907 22.1001 15.8425C21.8876 15.4646 21.7662 15.0423 21.7453 14.6092C21.8058 14.3838 22.267 14.0436 22.6364 13.7744C23.275 13.3039 24.0002 12.7696 24.0002 12.0006C24.0002 11.2316 23.2748 10.6962 22.6352 10.2267Z" fill="#FFC107"/>
<path d="M8.86919 14.6091C8.705 14.6091 8.55034 14.5318 8.45184 14.4004L6.26063 11.4788V14.0874C6.26063 14.3755 6.02703 14.6091 5.7389 14.6091C5.45076 14.6091 5.21716 14.3755 5.21716 14.0874V9.91364C5.21716 9.62551 5.45076 9.39191 5.7389 9.39191C5.90309 9.39191 6.05775 9.46923 6.15625 9.60061L8.34746 12.5222V9.91364C8.34746 9.62551 8.58106 9.39191 8.86919 9.39191C9.15733 9.39191 9.39093 9.62551 9.39093 9.91364V14.0874C9.39078 14.3118 9.24703 14.511 9.03407 14.5819C8.98096 14.5999 8.92529 14.6091 8.86919 14.6091Z" fill="#FAFAFA"/>
<path d="M13.0429 14.6091H10.9561C10.6679 14.6091 10.4343 14.3755 10.4343 14.0874V9.91364C10.4343 9.62551 10.6679 9.39191 10.9561 9.39191H13.0429C13.3311 9.39191 13.5647 9.62551 13.5647 9.91364C13.5647 10.2018 13.3311 10.4354 13.0429 10.4354H11.4778V13.5657H13.0429C13.3311 13.5657 13.5647 13.7993 13.5647 14.0874C13.5647 14.3755 13.3311 14.6091 13.0429 14.6091Z" fill="#FAFAFA"/>
<path d="M13.0429 12.5222H10.9561C10.6679 12.5222 10.4343 12.2886 10.4343 12.0005C10.4343 11.7124 10.6679 11.4788 10.9561 11.4788H13.0429C13.3311 11.4788 13.5647 11.7124 13.5647 12.0005C13.5647 12.2886 13.3311 12.5222 13.0429 12.5222Z" fill="#FAFAFA"/>
<path d="M18.2601 14.6091C18.0353 14.6094 17.8355 14.4656 17.7645 14.2522L17.2167 12.6067L16.6689 14.2522C16.6022 14.4774 16.3876 14.6256 16.1534 14.6081C15.9217 14.5993 15.7236 14.4386 15.6672 14.2136L14.6238 10.0399C14.554 9.76016 14.7243 9.47682 15.0041 9.40707C15.2839 9.33733 15.5672 9.50763 15.637 9.78741L16.2453 12.2228L16.7221 10.7922C16.8461 10.5188 17.1683 10.3976 17.4417 10.5216C17.5618 10.576 17.6579 10.6722 17.7124 10.7922L18.1892 12.2228L18.7975 9.78741C18.8672 9.50763 19.1505 9.33733 19.4304 9.40707C19.7101 9.47682 19.8804 9.76011 19.8107 10.0399L18.7673 14.2136C18.7109 14.4386 18.5127 14.5993 18.281 14.6081L18.2601 14.6091Z" fill="#FAFAFA"/>
</g>
<defs>
<clipPath id="clip0_1238_2582">
<rect width="24" height="24" fill="white"/>
</clipPath>
</defs>
</svg>
