<svg width="18" height="18" viewBox="0 0 18 18" fill="none" xmlns="http://www.w3.org/2000/svg">
<g clip-path="url(#clip0_1238_2208)">
<mask id="mask0_1238_2208" style="mask-type:luminance" maskUnits="userSpaceOnUse" x="0" y="0" width="18" height="18">
<path d="M0 1.90735e-06H18V18H0V1.90735e-06Z" fill="white"/>
</mask>
<g mask="url(#mask0_1238_2208)">
<path d="M16.3349 2.00721L1.09872 7.82335C0.325881 8.11835 0.338607 8.5648 1.12688 8.81557L4.54987 9.79502L6.34913 14.9403C6.62215 15.7211 7.34342 15.9015 7.9519 15.3413L10.2411 13.2336L13.4579 15.8239C14.1116 16.3309 14.7807 16.0823 14.9449 15.2717L17.4413 2.94483C17.6055 2.13419 17.1076 1.71232 16.3349 2.00721Z" stroke="#A0A0AB" stroke-width="1.11328" stroke-miterlimit="10" stroke-linecap="round" stroke-linejoin="round"/>
<path d="M4.59589 9.77137L13.765 5.08705L7.88423 11.3357L6.84381 15.5495" stroke="#A0A0AB" stroke-width="1.11328" stroke-miterlimit="10" stroke-linecap="round" stroke-linejoin="round"/>
<path d="M7.91193 11.3582L13.43 15.8015" stroke="#A0A0AB" stroke-width="1.11328" stroke-miterlimit="10" stroke-linecap="round" stroke-linejoin="round"/>
</g>
</g>
<defs>
<clipPath id="clip0_1238_2208">
<rect width="18" height="18" fill="white"/>
</clipPath>
</defs>
</svg>
