<svg width="18" height="18" viewBox="0 0 18 18" fill="none" xmlns="http://www.w3.org/2000/svg">
<path d="M8.25 13.5V15.75C8.25 16.125 7.95 16.5 7.5 16.5C7.05 16.5 6.75 16.125 6.75 15.75V13.5H8.25Z" stroke="#A0A0AB" stroke-miterlimit="10" stroke-linecap="round" stroke-linejoin="round"/>
<path d="M11.25 13.5V15.75C11.25 16.125 10.95 16.5 10.5 16.5C10.05 16.5 9.75 16.125 9.75 15.75V13.5H11.25Z" stroke="#A0A0AB" stroke-miterlimit="10" stroke-linecap="round" stroke-linejoin="round"/>
<path d="M12.75 8.25V12C12.75 12.825 12.075 13.5 11.25 13.5H6.75C5.925 13.5 5.25 12.825 5.25 12V8.25C5.25 7.425 5.925 6.75 6.75 6.75H11.25C12.075 6.75 12.75 7.425 12.75 8.25Z" stroke="#A0A0AB" stroke-miterlimit="10" stroke-linecap="round" stroke-linejoin="round"/>
<path d="M3.75 8.25V11.25C3.75 11.7 3.45 12 3 12C2.55 12 2.25 11.7 2.25 11.25V8.25C2.25 7.8 2.55 7.5 3 7.5C3.45 7.5 3.75 7.8 3.75 8.25Z" stroke="#A0A0AB" stroke-miterlimit="10" stroke-linecap="round" stroke-linejoin="round"/>
<path d="M15.75 8.25V11.25C15.75 11.7 15.45 12 15 12C14.55 12 14.25 11.7 14.25 11.25V8.25C14.25 7.8 14.55 7.5 15 7.5C15.45 7.5 15.75 7.8 15.75 8.25Z" stroke="#A0A0AB" stroke-miterlimit="10" stroke-linecap="round" stroke-linejoin="round"/>
<path d="M9.75 13.5H8.25" stroke="#A0A0AB" stroke-miterlimit="10" stroke-linecap="round" stroke-linejoin="round"/>
<path d="M7.2 5.25H10.8C11.475 5.25 12 4.6875 12 3.96429C12 2.19643 10.65 0.75 9 0.75C7.35 0.75 6 2.19643 6 3.96429C6 4.6875 6.525 5.25 7.2 5.25Z" stroke="#A0A0AB" stroke-miterlimit="10" stroke-linecap="round" stroke-linejoin="round"/>
</svg>
