<svg width="65" height="65" viewBox="0 0 65 65" fill="none" xmlns="http://www.w3.org/2000/svg">
<g id="deer 1" clip-path="url(#clip0_1309_1252)">
<g id="Group">
<path id="Vector" d="M32.39 64.78C50.2785 64.78 64.78 50.2785 64.78 32.39C64.78 14.5015 50.2785 0 32.39 0C14.5015 0 0 14.5015 0 32.39C0 50.2785 14.5015 64.78 32.39 64.78Z" fill="#B5D2F7"/>
<path id="Vector_2" d="M56.6791 15.7999L49.8248 8.94572L50.236 13.2508L49.0461 14.4408L43.5227 8.91725L41.143 11.297L41.676 11.8299L39.4707 14.7138L42.1627 17.4058L40.1026 19.4659L45.8261 25.1893L42.8682 28.1472L37.6855 22.9645L37.0996 23.5504L23.9776 10.4284L23.0093 11.3967L24.2786 12.6661L23.709 15.6718L24.6997 16.6625L23.6857 17.6765L14.9552 8.94597L14.5674 12.9447L15.5151 13.8923L14.7133 15.6487L21.8286 22.764L19.8818 24.7108L8.74115 13.57L8.35146 17.567L8.9222 18.1378L7.61914 19.4408L11.0785 22.9002L9.39641 24.5824L17.8101 32.9961L11.9904 38.8158L30.8115 57.6369L28.0742 60.3742L32.4787 64.7787C50.3261 64.7309 64.7799 50.2489 64.7799 32.39C64.7799 27.9068 63.8687 23.6364 62.222 19.7536L56.0389 13.5705L56.6791 15.7999Z" fill="#83AEF0"/>
<g id="Group_2">
<path id="Vector_3" d="M27.7282 35.8438L32.3892 35.0219C31.5971 34.2749 29.6796 32.2663 28.914 29.0018C28.0597 25.3588 29.1744 22.4297 29.5914 21.4624C29.0893 21.6203 27.4929 22.1922 26.3517 23.8479C25.0865 25.6837 25.2502 27.5911 25.3064 28.0757C24.359 27.7856 23.4116 27.4954 22.4642 27.2052C26.4258 20.1557 27.0041 13.3873 23.9367 10.3887C23.3664 9.83125 22.5276 9.2648 21.2566 8.91623C21.7621 9.70131 22.7715 11.5033 22.8764 14.0112C22.9955 16.8549 21.8818 18.9346 21.4039 19.7246C20.4031 19.204 18.9354 18.2677 17.6341 16.6617C15.1375 13.5803 14.9603 10.1395 14.9541 8.94558C14.6955 9.42232 12.5113 13.6176 14.5713 18.0459C16.0416 21.2068 18.773 22.5485 19.561 22.9021C19.2387 23.6532 18.9166 24.4043 18.5943 25.1554C17.8472 25.0895 14.1298 24.6837 11.3316 21.4328C8.4798 18.1197 8.68666 14.2961 8.73993 13.5694C6.37812 17.6803 7.12764 20.5612 7.38524 21.3739C8.76764 25.7351 14.1111 27.7261 16.191 28.5009C20.063 29.9435 22.1113 29.3443 24.6729 31.4755C26.3667 32.8847 27.2511 34.6274 27.7282 35.8438Z" fill="white"/>
<path id="Vector_4" d="M37.0516 35.8438L32.3906 35.0219C33.1827 34.2749 35.1003 32.2663 35.8658 29.0018C36.7201 25.3588 35.6055 22.4297 35.1884 21.4624C35.6905 21.6203 37.287 22.1922 38.4281 23.8479C39.6933 25.6837 39.5296 27.5911 39.4734 28.0757C40.4208 27.7856 41.3682 27.4954 42.3156 27.2052C38.3541 20.1557 37.7757 13.3873 40.8431 10.3887C41.4134 9.83125 42.2522 9.2648 43.5232 8.91623C43.0177 9.70131 42.0083 11.5033 41.9034 14.0112C41.7844 16.8549 42.898 18.9346 43.3759 19.7246C44.3767 19.204 45.8444 18.2677 47.1457 16.6617C49.6423 13.5803 49.8195 10.1395 49.8257 8.94558C50.0843 9.42232 52.2685 13.6176 50.2085 18.0459C48.7382 21.2068 46.0068 22.5485 45.2188 22.9021C45.5411 23.6532 45.8632 24.4043 46.1855 25.1554C46.9326 25.0895 50.6499 24.6837 53.4482 21.4328C56.3 18.1197 56.0931 14.2961 56.0399 13.5694C58.4017 17.6803 57.6522 20.5612 57.3946 21.3739C56.0122 25.7351 50.6687 27.7261 48.5888 28.5009C44.7168 29.9435 42.6685 29.3443 40.1069 31.4755C38.4131 32.8847 37.5287 34.6274 37.0516 35.8438Z" fill="#E9EDF5"/>
<path id="Vector_5" d="M25.7308 33.3026C25.5806 33.4543 25.436 33.615 25.2991 33.7939C24.9797 34.2111 24.7804 34.6025 24.6607 34.8728C24.2048 34.83 23.4955 34.7237 22.6912 34.4173C20.9703 33.7616 20.2861 32.7501 18.8509 31.604C17.5721 30.583 16.5042 30.0995 14.6979 29.282C12.0173 28.0686 10.0119 27.1609 9.07123 27.965C8.17114 28.7345 8.64219 30.7327 9.02657 32.3632C9.22862 33.2204 9.64501 34.1553 10.4779 36.0253C11.5382 38.4061 11.864 38.7463 12.1971 38.9949C12.8003 39.4449 13.6643 39.5763 15.3677 39.8207C17.5162 40.1289 17.9296 39.9796 19.074 40.2229C19.9934 40.4184 21.2915 40.8476 22.7679 41.906C23.4449 44.1362 23.7276 45.6715 23.8573 46.6911C23.8788 46.8605 23.9451 47.3805 24.0798 48.4707C24.1504 49.0424 24.2483 49.814 24.3957 50.9219C24.6478 52.8158 24.7549 53.4311 25.0751 54.3031C25.4351 55.2839 25.6023 55.2509 26.3671 56.7949C26.4714 57.0053 26.5594 57.1892 26.6428 57.3699L32.3887 59.7649L34.0533 44.6115L32.3887 32.9419L25.7308 33.3026Z" fill="#C88370"/>
<path id="Vector_6" d="M39.0485 33.3026C39.1987 33.4543 39.3433 33.615 39.4802 33.7939C39.7997 34.2111 39.999 34.6025 40.1187 34.8728C40.5745 34.83 41.2838 34.7237 42.0881 34.4173C43.8091 33.7616 44.4932 32.7501 45.9285 31.604C47.2073 30.583 48.2751 30.0995 50.0815 29.282C52.762 28.0686 54.7674 27.1609 55.7081 27.965C56.6082 28.7345 56.1372 30.7327 55.7528 32.3632C55.5507 33.2204 55.1343 34.1553 54.3014 36.0253C53.2412 38.4061 52.9154 38.7463 52.5822 38.9949C51.9791 39.4449 51.1151 39.5763 49.4117 39.8207C47.2632 40.1289 46.8497 39.9796 45.7053 40.2229C44.786 40.4184 43.4879 40.8476 42.0115 41.906C41.3344 44.1362 41.0518 45.6715 40.9221 46.6911C40.9006 46.8605 40.8343 47.3805 40.6995 48.4707C40.6289 49.0424 40.531 49.814 40.3836 50.9219C40.1316 52.8158 40.0244 53.4311 39.7043 54.3031C39.3442 55.2839 39.1771 55.2509 38.4123 56.7949C38.308 57.0053 38.2199 57.1892 38.1366 57.3699L32.3906 59.7649V32.9419L39.0485 33.3026Z" fill="#BF725D"/>
<path id="Vector_7" d="M29.4429 31.4774C28.619 31.6702 26.9817 32.0379 25.7305 33.3025C26.3909 34.3649 27.2439 35.9287 27.9356 37.9374C28.5637 39.7613 28.7799 41.7963 29.2123 45.8664C29.4456 48.0623 29.3934 49.4626 29.1109 50.6606C29.0432 50.9476 28.9824 51.3929 28.7217 51.8957C28.5574 52.2128 28.3584 52.4843 28.1452 52.7162C27.1797 53.7665 26.6714 55.1581 26.6528 56.5846L26.6426 57.3696C27.4621 59.1398 27.3677 59.5638 27.9127 60.2014C28.5225 60.9145 29.7296 61.658 32.3885 61.5628L34.3013 45.1643L32.3884 31.2929C31.1182 31.1647 30.0972 31.3243 29.4429 31.4774Z" fill="#D59684"/>
<path id="Vector_8" d="M35.3361 31.4774C36.16 31.6702 37.7974 32.0379 39.0485 33.3025C38.3881 34.3649 37.5351 35.9287 36.8434 37.9374C36.2153 39.7613 35.9992 41.7963 35.5667 45.8664C35.3334 48.0623 35.3856 49.4626 35.6681 50.6606C35.7358 50.9476 35.7966 51.3929 36.0573 51.8957C36.2216 52.2128 36.4206 52.4843 36.6338 52.7162C37.5993 53.7665 38.1076 55.1581 38.1263 56.5846L38.1366 57.3696C37.3171 59.1398 37.4115 59.5638 36.8664 60.2014C36.2567 60.9145 35.0495 61.658 32.3906 61.5628V31.2929C33.6608 31.1647 34.6818 31.3243 35.3361 31.4774Z" fill="#C88370"/>
<path id="Vector_9" d="M24.276 36.3304C22.5493 36.1276 21.3739 35.5759 20.6142 35.1024C19.1857 34.2122 19.0823 33.509 17.2428 32.3185C16.2893 31.7015 15.5346 31.3841 14.3439 30.8834C12.487 30.1024 11.5586 29.712 11.1251 30.0411C10.3259 30.6478 11.0768 32.892 11.4688 34.0636C12.1014 35.9544 12.4231 36.9159 13.3432 37.6383C15.0065 38.9443 16.6269 37.9003 19.8414 38.8853C21.2336 39.3118 22.297 39.9266 22.9906 40.3912C23.2798 39.9842 23.6328 39.3952 23.8966 38.6303C24.2166 37.7018 24.2784 36.8827 24.276 36.3304Z" fill="#D59684"/>
<path id="Vector_10" d="M40.502 36.3304C42.2287 36.1276 43.4041 35.5759 44.1637 35.1024C45.5923 34.2122 45.6957 33.509 47.5352 32.3185C48.4887 31.7015 49.2434 31.3841 50.4341 30.8834C52.291 30.1024 53.2194 29.712 53.6529 30.0411C54.4521 30.6478 53.7012 32.892 53.3092 34.0636C52.6766 35.9544 52.3549 36.9159 51.4348 37.6383C49.7715 38.9443 48.1511 37.9003 44.9365 38.8853C43.5444 39.3118 42.481 39.9266 41.7874 40.3912C41.4981 39.9842 41.1451 39.3952 40.8813 38.6303C40.5614 37.7018 40.4996 36.8827 40.502 36.3304Z" fill="#C88370"/>
<path id="Vector_11" d="M29.0605 54.835L32.3895 58.1122L33.2529 56.0677L32.3895 54.835H29.0605Z" fill="#555A65"/>
<path id="Vector_12" d="M35.7196 54.835L32.3906 58.1122V54.835H35.7196Z" fill="#333940"/>
</g>
</g>
</g>
<defs>
<clipPath id="clip0_1309_1252">
<rect width="64.78" height="64.78" fill="white"/>
</clipPath>
</defs>
</svg>
