<svg width="24" height="24" viewBox="0 0 24 24" fill="none" xmlns="http://www.w3.org/2000/svg">
<path d="M18.2173 9.37645L18.0899 9.25047L18.0663 9.23088C16.2178 7.69646 15.319 5.39446 15.6002 2.91503L15.9309 0L13.0946 1.53039C10.0803 3.15673 8.09583 6.16973 7.76185 9.53868L4.5793 8.60942L4.33083 9.17686C3.32961 11.4624 2.83486 13.6563 2.86031 15.698C2.88814 17.9249 3.78078 20.013 5.37379 21.5778C6.96369 23.1397 9.06721 24 11.2965 24H12.6605C17.2864 24 21.0708 20.2725 21.0967 15.6905C21.1111 13.1085 20.1691 11.0429 18.2173 9.37645ZM11.6373 22.5904C9.91572 22.5904 8.49757 21.1966 8.47614 19.4833C8.46735 18.7813 8.60761 18.0265 8.89362 17.2331L10.8939 17.817L10.9023 16.886C10.9146 15.5343 11.5968 14.286 12.7064 13.5432C12.7031 14.9181 13.2755 16.1748 14.3225 17.0561L14.3637 17.0967L14.4031 17.1328C15.1536 17.7702 15.4858 18.4962 15.4803 19.4868C15.4706 21.1983 14.0526 22.5904 12.3193 22.5904H11.6373ZM16.3894 21.5258C16.7053 20.9152 16.8856 20.2251 16.8896 19.4948C16.8975 18.0979 16.3894 16.9795 15.3364 16.0763L15.2708 16.0114L15.2472 15.992C14.404 15.2918 14.0105 14.2807 14.1392 13.1449L14.3805 11.0173L12.369 12.1027C10.884 12.904 9.86664 14.3351 9.57715 15.9644L8.08027 15.5273L7.8318 16.0946C7.31086 17.2837 7.05342 18.4297 7.06697 19.5011C7.07575 20.2113 7.24714 20.8956 7.56245 21.5112C5.61293 20.2835 4.30043 18.1287 4.26967 15.6804C4.2488 14.0079 4.62306 12.2047 5.38258 10.3123L9.11335 11.4016L9.12177 10.4705C9.15107 7.25041 10.9298 4.30004 13.7639 2.77093L14.2266 2.52117L14.1998 2.75628C13.8653 5.70592 14.9374 8.45177 17.1421 10.2955L17.245 10.3973L17.2844 10.4333C18.9358 11.8357 19.6994 13.5038 19.6873 15.6826C19.6734 18.1397 18.3565 20.3009 16.3894 21.5258Z" fill="#A594FD"/>
</svg>
