<svg width="66" height="66" viewBox="0 0 66 66" fill="none" xmlns="http://www.w3.org/2000/svg">
<g id="gamer 1" clip-path="url(#clip0_1295_8774)">
<path id="Vector" d="M65.5378 33.1493C65.5378 51.0369 51.0374 65.5373 33.1498 65.5373C15.2621 65.5373 0.761719 51.0369 0.761719 33.1493C0.761719 15.2616 15.2621 0.7612 33.1498 0.7612C51.0374 0.7612 65.5378 15.2616 65.5378 33.1493Z" fill="#F93D6E"/>
<path id="Vector_2" d="M51.1686 60.067C49.6074 61.1142 47.9498 62.0305 46.2117 62.7955C44.864 63.3905 43.4689 63.8966 42.0328 64.3038C39.2114 65.1074 36.2323 65.5373 33.1514 65.5373C30.0721 65.5373 27.0925 65.1074 24.2701 64.3053C23.3539 64.0443 22.4534 63.7434 21.5713 63.4043C21.5169 63.3841 21.4626 63.3638 21.4082 63.3421C20.9644 63.1701 20.5251 62.9867 20.0911 62.7955C18.353 62.029 16.6955 61.1142 15.1328 60.0655C16.4474 58.2473 18.139 56.7217 20.0911 55.5969C21.3815 54.8541 22.786 54.2888 24.2701 53.9334C24.4989 53.8776 24.7307 53.8272 24.9635 53.7827C25.4023 53.6967 25.8491 53.631 26.3008 53.584C26.4308 53.5702 26.5598 53.5574 26.6917 53.5475C27.1192 53.5119 27.5516 53.4941 27.9895 53.4941H38.3119C38.8837 53.4941 39.4471 53.5247 40.0011 53.5831C40.4528 53.6295 40.8981 53.6967 41.3384 53.7802C41.5143 53.8143 41.6888 53.8509 41.8623 53.8904C41.9191 53.9053 41.9774 53.9166 42.0328 53.932C43.5183 54.2888 44.9214 54.8541 46.2117 55.5969C48.1638 56.7227 49.854 58.2488 51.1686 60.067Z" fill="#42B7A1"/>
<path id="Vector_3" d="M17.6324 36.0102C17.6324 38.6285 15.7193 40.8 13.2147 41.2028C12.9409 41.2473 12.6592 41.2705 12.3721 41.2705C9.4662 41.2705 7.11133 38.9156 7.11133 36.0097C7.11133 33.1038 9.4662 30.7494 12.3721 30.7494C12.6592 30.7494 12.9409 30.7726 13.2147 30.8171C15.7193 31.2204 17.6324 33.3914 17.6324 36.0102Z" fill="#F9C5AC"/>
<path id="Vector_4" d="M17.6316 36.0102C17.6316 38.6285 15.7186 40.8 13.2139 41.2028C12.7588 39.5482 12.5156 37.8071 12.5156 36.0102C12.5156 34.2128 12.7588 32.4717 13.2139 30.8171C15.7186 31.2204 17.6316 33.3914 17.6316 36.0102Z" fill="#EFB29A"/>
<path id="Vector_5" d="M14.2526 36.0102C14.2526 37.0485 13.4109 37.8901 12.3726 37.8901C11.3343 37.8901 10.4922 37.0485 10.4922 36.0102C10.4922 34.9719 11.3343 34.1302 12.3726 34.1302C13.4109 34.1302 14.2526 34.9719 14.2526 36.0102Z" fill="#EFB29A"/>
<path id="Vector_6" d="M27.9895 53.4941C24.2751 53.4941 21.7576 58.8621 21.5713 63.4043C21.5169 63.3841 21.4626 63.3638 21.4082 63.3421C20.9644 63.1701 20.5251 62.9867 20.0911 62.7955C18.353 62.029 16.6955 61.1142 15.1328 60.0655C16.4474 58.2473 18.139 56.7217 20.0911 55.5969C21.3815 54.8541 22.786 54.2888 24.2701 53.9334C24.4989 53.8776 24.7307 53.8272 24.9635 53.7827C25.4023 53.6967 25.8491 53.631 26.3008 53.584C26.4308 53.5702 26.5598 53.5574 26.6917 53.5475C27.1192 53.5119 27.5516 53.4941 27.9895 53.4941Z" fill="#289983"/>
<path id="Vector_7" d="M48.666 36.0102C48.666 38.6285 50.5786 40.8 53.0837 41.2028C53.3575 41.2473 53.6387 41.2705 53.9263 41.2705C56.8322 41.2705 59.1866 38.9156 59.1866 36.0097C59.1866 33.1038 56.8322 30.7494 53.9263 30.7494C53.6387 30.7494 53.3575 30.7726 53.0837 30.8171C50.5786 31.2204 48.666 33.3914 48.666 36.0102Z" fill="#F9C5AC"/>
<path id="Vector_8" d="M48.666 36.0102C48.666 38.6285 50.5786 40.8 53.0837 41.2028C53.5384 39.5482 53.7815 37.8071 53.7815 36.0102C53.7815 34.2128 53.5384 32.4717 53.0837 30.8171C50.5786 31.2204 48.666 33.3914 48.666 36.0102Z" fill="#EFB29A"/>
<path id="Vector_9" d="M55.8068 36.0102C55.8068 37.0485 54.9651 37.8901 53.9268 37.8901C52.8885 37.8901 52.0469 37.0485 52.0469 36.0102C52.0469 34.9719 52.8885 34.1302 53.9268 34.1302C54.9651 34.1302 55.8068 34.9719 55.8068 36.0102Z" fill="#EFB29A"/>
<path id="Vector_10" d="M41.3358 53.7802V54.3293C41.3358 57.9399 39.018 61.0826 35.568 62.1491C34.7872 62.3922 33.9727 62.5148 33.1474 62.5148C28.6334 62.5148 24.9609 58.8419 24.9609 54.3293V53.7827C25.3998 53.6967 25.8465 53.631 26.2982 53.584C26.4282 53.5702 26.5572 53.5574 26.6892 53.5475C27.1166 53.5119 27.5491 53.4941 27.9869 53.4941H38.3094C38.8811 53.4941 39.4445 53.5247 39.9985 53.5831C40.4502 53.6295 40.8955 53.6967 41.3358 53.7802Z" fill="#F9C5AC"/>
<path id="Vector_11" d="M26.6892 53.5475C26.5572 53.5574 26.4282 53.5702 26.2982 53.584C25.8465 53.631 25.3998 53.6967 24.9609 53.7827V54.3293C24.9609 54.4869 24.9664 54.6431 24.9753 54.7983C25.8485 53.9863 26.8631 53.4941 27.9869 53.4941C27.5491 53.4941 27.1166 53.5119 26.6892 53.5475Z" fill="#EFB29A"/>
<path id="Vector_12" d="M38.8055 47.3872V54.3288C38.8055 56.8705 37.1296 59.0183 34.8217 59.7319C34.2929 59.896 33.73 59.9845 33.1478 59.9845C30.024 59.9845 27.4922 57.4527 27.4922 54.3288V47.3872H38.8055Z" fill="#EFB29A"/>
<path id="Vector_13" d="M38.8044 53.8895V54.3288C38.8044 56.8705 37.1285 59.0183 34.8206 59.7319C32.738 59.0919 31.1719 57.2812 30.8828 55.0657C31.2609 55.0889 31.6409 55.1002 32.0224 55.1002C33.0929 55.1002 34.1416 55.0152 35.1636 54.8477C36.4228 54.6451 37.6396 54.3214 38.8044 53.8895Z" fill="#F9C5AC"/>
<path id="Vector_14" d="M52.7224 33.214C52.7224 42.9537 45.6069 51.0335 36.2917 52.5334C35.2697 52.7014 34.2205 52.7864 33.1505 52.7864C22.3403 52.7864 13.5781 44.0242 13.5781 33.214V13.2878H52.7224V33.214Z" fill="#F9C5AC"/>
<path id="Vector_15" d="M36.5976 52.482C36.4963 52.4998 36.394 52.5176 36.2917 52.5339C35.2692 52.7009 34.2205 52.7859 33.15 52.7859C22.3408 52.7859 13.5781 44.0247 13.5781 33.214V13.2878H20.4797V33.214C20.4797 42.8465 27.4356 50.8516 36.5976 52.482Z" fill="#EFB29A"/>
<path id="Vector_16" d="M33.1509 43.5147C31.5116 43.5147 29.8728 43.104 28.3788 42.2826C27.9578 42.0513 27.8041 41.522 28.0354 41.1005C28.2672 40.6789 28.7964 40.5252 29.218 40.757C31.6806 42.1106 34.6211 42.1106 37.0832 40.757C37.5048 40.5252 38.0341 40.6789 38.2659 41.1005C38.4976 41.522 38.3439 42.0513 37.9224 42.2826C36.4284 43.104 34.7896 43.5147 33.1509 43.5147Z" fill="#DD9F8A"/>
<path id="Vector_17" d="M35.3689 37.6653H30.9285C30.3997 37.6653 29.9707 37.2363 29.9707 36.7075C29.9707 36.1782 30.3997 35.7498 30.9285 35.7498H35.3689C35.8982 35.7498 36.3266 36.1782 36.3266 36.7075C36.3266 37.2363 35.8982 37.6653 35.3689 37.6653Z" fill="#EFB29A"/>
<path id="Vector_18" d="M36.3555 32.2839C36.3555 34.4554 38.1158 36.2163 40.2878 36.2163C42.4594 36.2163 44.2197 34.4554 44.2197 32.2839" fill="#EFB29A"/>
<path id="Vector_19" d="M43.1081 32.2839C43.1081 33.8411 41.8459 35.1038 40.2887 35.1038C38.7309 35.1038 37.4688 33.8411 37.4688 32.2839C37.4688 30.7267 38.7309 29.4645 40.2887 29.4645C41.8459 29.4645 43.1081 30.7267 43.1081 32.2839Z" fill="#2F373B"/>
<path id="Vector_20" d="M42.6725 31.7862C42.6725 32.4539 42.1314 32.9946 41.4642 32.9946C40.797 32.9946 40.2559 32.4539 40.2559 31.7862C40.2559 31.1191 40.797 30.5784 41.4642 30.5784C42.1314 30.5784 42.6725 31.1191 42.6725 31.7862Z" fill="white"/>
<path id="Vector_21" d="M22.0781 32.2839C22.0781 34.4554 23.839 36.2163 26.0105 36.2163C28.182 36.2163 29.9424 34.4554 29.9424 32.2839" fill="#EFB29A"/>
<path id="Vector_22" d="M28.8308 32.2839C28.8308 33.8411 27.5686 35.1038 26.0113 35.1038C24.4541 35.1038 23.1914 33.8411 23.1914 32.2839C23.1914 30.7267 24.4541 29.4645 26.0113 29.4645C27.5686 29.4645 28.8308 30.7267 28.8308 32.2839Z" fill="#2F373B"/>
<path id="Vector_23" d="M26.6706 35.0257C26.4596 35.0776 26.2382 35.1038 26.0113 35.1038C24.4541 35.1038 23.1914 33.8416 23.1914 32.2839C23.1914 30.7267 24.4541 29.464 26.0113 29.464C26.2382 29.464 26.4596 29.4907 26.6706 29.5426C25.4306 29.8386 24.5109 30.9545 24.5109 32.2839C24.5109 33.6138 25.4306 34.7297 26.6706 35.0257Z" fill="#181E21"/>
<path id="Vector_24" d="M40.9479 35.0257C40.7364 35.0776 40.515 35.1038 40.2887 35.1038C38.7314 35.1038 37.4688 33.8416 37.4688 32.2839C37.4688 30.7267 38.7314 29.464 40.2887 29.464C40.515 29.464 40.7364 29.4907 40.9479 29.5426C39.708 29.8386 38.7883 30.9545 38.7883 32.2839C38.7883 33.6138 39.708 34.7297 40.9479 35.0257Z" fill="#181E21"/>
<path id="Vector_25" d="M28.3947 31.7862C28.3947 32.4539 27.854 32.9946 27.1868 32.9946C26.5192 32.9946 25.9785 32.4539 25.9785 31.7862C25.9785 31.1191 26.5192 30.5784 27.1868 30.5784C27.854 30.5784 28.3947 31.1191 28.3947 31.7862Z" fill="white"/>
<path id="Vector_26" d="M35.17 23.8395C35.6232 22.768 39.5803 27.9502 41.0639 27.5489C44.0602 26.7394 41.3935 23.1802 41.3935 23.1802L36.9012 19.3056L34.3457 21.0779" fill="#EFB29A"/>
<path id="Vector_27" d="M20.4793 27.4254C20.4793 25.7767 27.3537 30.2008 29.5657 27.9888C31.7778 25.7767 20.9513 19.9239 20.9513 19.9239L16.582 20.4186" fill="#EFB29A"/>
<path id="Vector_28" d="M8.66079 33.6128C8.03069 31.3746 7.71094 29.0503 7.71094 26.7044C7.71094 12.6769 19.1231 1.26479 33.1505 1.26479C47.178 1.26479 58.5901 12.6769 58.5901 26.7044C58.5901 29.0157 58.2797 31.3069 57.6679 33.514L55.2295 32.8379C55.7805 30.8512 56.0598 28.7874 56.0598 26.7044C56.0598 14.072 45.7828 3.7951 33.1505 3.7951C20.5182 3.7951 10.2413 14.072 10.2413 26.7044C10.2413 28.8186 10.5289 30.912 11.0962 32.9269L8.66079 33.6128Z" fill="#F1EEE9"/>
<path id="Vector_29" d="M56.396 16.2554C58.6214 12.67 51.8212 9.94893 51.8212 9.94893C51.8212 9.94893 55.082 9.75372 54.0471 7.10479C52.9361 4.26065 44.5253 7.10479 44.5253 4.26065C44.5253 1.41652 40.1971 2.28335 33.1502 5.00344C26.1034 2.28335 21.7752 1.41652 21.7752 4.26065C21.7752 7.10479 13.2848 4.26065 12.2534 7.10479C11.2847 9.77941 14.4793 9.94893 14.4793 9.94893C14.4793 9.94893 7.67903 12.67 9.90442 16.2554C12.1298 19.8409 13.9855 18.2342 13.0584 20.7685C12.1298 23.3038 9.90442 25.2825 11.5121 26.8892C13.1192 28.4973 12.3725 30.7494 12.3725 30.7494C12.3725 30.7494 12.2119 32.2068 14.1081 32.2068C16.0049 32.2068 15.0975 24.9119 19.0551 23.5504C21.5602 22.689 25.0582 25.2494 28.2907 26.8348C30.1633 27.7536 31.9468 28.3441 33.3983 27.7546C37.3554 26.1479 34.0171 22.8091 37.3554 22.8091C40.6942 22.8091 42.8351 28.8971 45.145 28.1267C46.1759 27.7827 45.3793 26.1617 46.3959 25.6942C48.4201 24.7641 50.4463 28.7504 51.1194 30.8745C51.3725 31.6756 51.6799 32.2068 52.1924 32.2068C54.0886 32.2068 53.928 30.7494 53.928 30.7494C53.928 30.7494 53.1813 28.4973 54.7884 26.8892C56.396 25.2825 54.1706 23.3038 53.242 20.7685C52.3149 18.2342 54.1706 19.8409 56.396 16.2554Z" fill="#2F373B"/>
<path id="Vector_30" d="M47.3035 48.3371C46.0556 48.3371 44.8745 48.1508 43.8574 47.9037L44.4544 45.445C51.8546 47.2419 54.0098 41.7701 54.0978 41.5364L56.4734 42.4076C56.4433 42.4902 55.7178 44.4433 53.783 46.0791C51.7553 47.7935 49.4325 48.3371 47.3035 48.3371Z" fill="#F1EEE9"/>
<path id="Vector_31" d="M25.3606 9.08358C27.8341 11.5566 19.5498 12.4224 20.167 15.5132C20.7858 18.6049 28.2907 26.8348 28.2907 26.8348C25.0582 25.2494 21.5602 22.689 19.0551 23.5504C15.0975 24.9119 16.0049 32.2068 14.1081 32.2068C12.2119 32.2068 12.3725 30.7494 12.3725 30.7494C12.3725 30.7494 13.1192 28.4973 11.5121 26.8892C9.90442 25.2825 12.1298 23.3038 13.0584 20.7685C13.9855 18.2342 12.1298 19.8409 9.90442 16.2554C7.67903 12.67 14.4793 9.94893 14.4793 9.94893C14.4793 9.94893 11.2847 9.77941 12.2534 7.10479C13.2848 4.26065 21.7752 7.10479 21.7752 4.26065C21.7752 1.41652 26.1034 2.28335 33.1502 5.00344C28.3036 3.3103 22.8886 6.61009 25.3606 9.08358Z" fill="#181E21"/>
<path id="Vector_32" d="M6.38584 42.4759L7.77999 42.2727C8.89689 42.1101 9.67031 41.0728 9.50772 39.9559L8.28852 31.5886C8.12593 30.4717 7.0886 29.6982 5.9717 29.8608L4.57756 30.064C3.46066 30.2265 2.68674 31.2639 2.84982 32.3808L4.06853 40.7481C4.23161 41.865 5.26894 42.6389 6.38584 42.4759Z" fill="#2F373B"/>
<path id="Vector_33" d="M13.1583 44.1715L9.79084 44.6622C8.18567 44.896 6.69466 43.784 6.46091 42.1788L4.73416 30.3274C4.5004 28.7217 5.61236 27.2307 7.21753 26.9969L10.5845 26.5062C12.1902 26.2724 13.6812 27.3844 13.915 28.9896L15.6417 40.8415C15.8755 42.4467 14.7635 43.9377 13.1583 44.1715Z" fill="#40B4D3"/>
<path id="Vector_34" d="M15.0246 36.6008L15.6423 40.8415C15.8761 42.4467 14.7646 43.9377 13.1594 44.1715L9.79193 44.6622C8.18676 44.896 6.69576 43.7845 6.462 42.1788L5.84375 37.9381C6.078 39.5433 7.56901 40.6552 9.17418 40.4214L12.5417 39.9307C14.1468 39.6969 15.2583 38.2059 15.0246 36.6008Z" fill="#0084A6"/>
<path id="Vector_35" d="M59.913 42.4759L58.5189 42.2727C57.402 42.1101 56.6285 41.0728 56.7911 39.9559L58.0103 31.5886C58.1729 30.4717 59.2102 29.6982 60.3271 29.8608L61.7213 30.064C62.8382 30.2265 63.6121 31.2639 63.449 32.3808L62.2303 40.7481C62.0672 41.865 61.0299 42.6389 59.913 42.4759Z" fill="#2F373B"/>
<path id="Vector_36" d="M53.1429 44.1715L56.5104 44.6622C58.1156 44.896 59.6066 43.784 59.8404 42.1788L61.5671 30.3274C61.8009 28.7217 60.6889 27.2307 59.0837 26.9969L55.7167 26.5062C54.1111 26.2724 52.6201 27.3844 52.3863 28.9896L50.6601 40.8415C50.4258 42.4467 51.5378 43.9377 53.1429 44.1715Z" fill="#40B4D3"/>
<path id="Vector_37" d="M51.2777 36.6008L50.66 40.8415C50.4262 42.4467 51.5377 43.9377 53.1433 44.1715L56.5108 44.6622C58.116 44.896 59.607 43.7845 59.8408 42.1788L60.4585 37.9381C60.2247 39.5433 58.7337 40.6552 57.1286 40.4214L53.7611 39.9307C52.1554 39.6969 51.0439 38.2059 51.2777 36.6008Z" fill="#0084A6"/>
<path id="Vector_38" d="M46.6932 46.427C46.6932 48.1681 45.2813 49.58 43.5402 49.58C41.7987 49.58 40.3867 48.1681 40.3867 46.427C40.3867 44.6854 41.7987 43.2735 43.5402 43.2735C45.2813 43.2735 46.6932 44.6854 46.6932 46.427Z" fill="#2F373B"/>
<path id="Vector_39" d="M44.4782 49.4382C44.1822 49.5306 43.8674 49.58 43.5407 49.58C41.7987 49.58 40.3867 48.1681 40.3867 46.427C40.3867 44.6849 41.7987 43.2745 43.5407 43.2745C43.8674 43.2745 44.1822 43.3239 44.4782 43.4158C43.1958 43.8156 42.2642 45.0126 42.2642 46.427C42.2642 47.8414 43.1958 49.0384 44.4782 49.4382Z" fill="#181E21"/>
<g id="Group">
<path id="Vector_40" d="M47.2129 32.0516V32.0852C47.2332 34.0057 50.1588 34.0057 50.1791 32.0852C50.1791 32.0744 50.1791 32.0625 50.1791 32.0516C50.1791 30.9199 49.5861 29.9295 48.696 29.3661C47.8059 29.9295 47.2129 30.9199 47.2129 32.0516Z" fill="white"/>
<path id="Vector_41" d="M16.2891 36.6008V36.6349C16.3093 38.5553 19.235 38.5553 19.2553 36.6349C19.2553 36.6235 19.2553 36.6121 19.2553 36.6008C19.2553 35.4695 18.6622 34.4787 17.7722 33.9158C16.8821 34.4787 16.2891 35.4695 16.2891 36.6008Z" fill="white"/>
</g>
</g>
<defs>
<clipPath id="clip0_1295_8774">
<rect width="64.7761" height="64.7761" fill="white" transform="translate(0.761719 0.7612)"/>
</clipPath>
</defs>
</svg>
