<svg width="18" height="18" viewBox="0 0 18 18" fill="none" xmlns="http://www.w3.org/2000/svg">
<path d="M13.3425 17.0625H4.6575C2.6025 17.0625 0.9375 15.39 0.9375 13.335V7.77751C0.9375 6.75751 1.5675 5.47501 2.3775 4.84501L6.42 1.69501C7.635 0.750011 9.5775 0.705011 10.8375 1.59001L15.4725 4.83751C16.365 5.46001 17.0625 6.79501 17.0625 7.88251V13.3425C17.0625 15.39 15.3975 17.0625 13.3425 17.0625ZM7.11 2.58001L3.0675 5.73001C2.535 6.15001 2.0625 7.10251 2.0625 7.77751V13.335C2.0625 14.7675 3.225 15.9375 4.6575 15.9375H13.3425C14.775 15.9375 15.9375 14.775 15.9375 13.3425V7.88251C15.9375 7.16251 15.42 6.16501 14.8275 5.76001L10.1925 2.51251C9.3375 1.91251 7.9275 1.94251 7.11 2.58001Z" fill="white"/>
<path d="M9 14.0625C8.6925 14.0625 8.4375 13.8075 8.4375 13.5V11.25C8.4375 10.9425 8.6925 10.6875 9 10.6875C9.3075 10.6875 9.5625 10.9425 9.5625 11.25V13.5C9.5625 13.8075 9.3075 14.0625 9 14.0625Z" fill="white"/>
</svg>
