<svg width="18" height="18" viewBox="0 0 18 18" fill="none" xmlns="http://www.w3.org/2000/svg">
<path d="M12.5548 14.6925H5.45233C4.85983 14.6925 4.43233 14.67 4.06483 14.6175C1.46233 14.3325 0.944824 12.7725 0.944824 10.185V5.44501C0.944824 2.85751 1.45483 1.29748 4.07983 1.01248C4.43983 0.959982 4.86733 0.9375 5.45233 0.9375H12.5548C13.1398 0.9375 13.5673 0.959982 13.9423 1.01248C16.5523 1.29748 17.0623 2.85751 17.0623 5.44501V10.185C17.0623 12.7725 16.5523 14.3325 13.9273 14.6175C13.5748 14.67 13.1473 14.6925 12.5548 14.6925ZM5.44482 2.0625C4.91232 2.0625 4.52982 2.08502 4.21482 2.13002C2.59482 2.31002 2.06233 2.81251 2.06233 5.45251V10.1925C2.06233 12.825 2.59483 13.335 4.19983 13.5075C4.52983 13.5525 4.91233 13.575 5.45233 13.575H12.5548C13.0948 13.575 13.4698 13.5525 13.7848 13.5075C15.4048 13.3275 15.9373 12.825 15.9373 10.185V5.44501C15.9373 2.81251 15.4048 2.30252 13.7998 2.13002C13.4623 2.08502 13.0873 2.0625 12.5473 2.0625H5.44482Z" fill="#A0A0AB"/>
<path d="M12.9451 6.80255H10.1851C9.87756 6.80255 9.62256 6.54755 9.62256 6.24005C9.62256 5.93255 9.87756 5.67755 10.1851 5.67755H12.9451C13.2526 5.67755 13.5076 5.93255 13.5076 6.24005C13.5076 6.54755 13.2601 6.80255 12.9451 6.80255Z" fill="#A0A0AB"/>
<path d="M7.5 6.99005C7.0875 6.99005 6.75 6.65255 6.75 6.24005C6.75 5.82755 7.08 5.49005 7.5 5.49005C7.9125 5.49005 8.25 5.82755 8.25 6.24005C8.25 6.65255 7.92 6.99005 7.5 6.99005Z" fill="#A0A0AB"/>
<path d="M5.13757 6.99005C4.72507 6.99005 4.38757 6.65255 4.38757 6.24005C4.38757 5.82755 4.71757 5.49005 5.13757 5.49005H5.14507C5.55757 5.49005 5.89507 5.82755 5.89507 6.24005C5.89507 6.65255 5.55007 6.99005 5.13757 6.99005Z" fill="#A0A0AB"/>
<path d="M12.9452 11.145H5.06267C4.75517 11.145 4.49268 10.89 4.49268 10.5825C4.49268 10.275 4.74017 10.02 5.04767 10.02H12.9452C13.2527 10.02 13.5077 10.275 13.5077 10.5825C13.5077 10.89 13.2602 11.145 12.9452 11.145Z" fill="#A0A0AB"/>
<path d="M12.75 17.0625H5.25C4.9425 17.0625 4.6875 16.8075 4.6875 16.5C4.6875 16.1925 4.9425 15.9375 5.25 15.9375H12.75C13.0575 15.9375 13.3125 16.1925 13.3125 16.5C13.3125 16.8075 13.0575 17.0625 12.75 17.0625Z" fill="#A0A0AB"/>
</svg>
