<svg width="24" height="24" viewBox="0 0 24 24" fill="none" xmlns="http://www.w3.org/2000/svg">
<path fill-rule="evenodd" clip-rule="evenodd" d="M14.7831 9.70236C15.5641 10.4834 16.8304 10.4834 17.6115 9.70236C18.3925 8.92131 18.3925 7.65498 17.6115 6.87393C16.8304 6.09288 15.5641 6.09288 14.7831 6.87393C14.002 7.65498 14.002 8.92131 14.7831 9.70236ZM15.4902 8.99525C15.8807 9.38578 16.5139 9.38578 16.9044 8.99525C17.2949 8.60473 17.2949 7.97156 16.9044 7.58104C16.5139 7.19052 15.8807 7.19052 15.4902 7.58104C15.0996 7.97156 15.0996 8.60473 15.4902 8.99525Z" fill="#F3CE92"/>
<path d="M12.7207 15.0482C12.8253 15.3038 13.1067 15.4465 13.3687 15.3592C13.6307 15.2719 13.7737 14.9877 13.6712 14.7313C12.9275 12.871 11.6142 11.5578 9.75391 10.814C9.4975 10.7115 9.21339 10.8546 9.12607 11.1165C9.03875 11.3785 9.18146 11.6599 9.43704 11.7645C10.9954 12.4021 12.0831 13.4898 12.7207 15.0482Z" fill="#F3CE92"/>
<path fill-rule="evenodd" clip-rule="evenodd" d="M16.2583 3.79658C17.6137 3.49406 18.8904 3.46898 19.6763 3.49435C20.3997 3.5177 20.9677 4.08573 20.991 4.80911C21.0164 5.59494 20.9913 6.87169 20.6888 8.22708C20.387 9.57931 19.8001 11.0492 18.6721 12.1772L18.6498 12.1995C17.7381 13.1112 17.022 13.8273 16.4299 14.34L16.6676 16.4794C16.7012 16.7813 16.5957 17.0821 16.3809 17.2969L14.2585 19.4192C13.7509 19.9269 12.8896 19.7501 12.6229 19.0835L11.6398 16.6257L8.48462 17.1515C7.80781 17.2643 7.22103 16.6776 7.33383 16.0007L7.8597 12.8455L5.40186 11.8624C4.7353 11.5958 4.5585 10.7345 5.06614 10.2268L7.18847 8.1045C7.40328 7.88969 7.70408 7.78418 8.00601 7.81772L10.1453 8.05543C10.6581 7.46332 11.3741 6.74727 12.2859 5.83548L12.3081 5.81325C13.4361 4.68525 14.9061 4.0984 16.2583 3.79658ZM16.4761 4.77257C15.2282 5.05111 13.9604 5.5752 13.0152 6.52036C11.9668 7.56878 11.2259 8.31049 10.7411 8.89956L10.569 9.10865L7.89557 8.81161L5.77325 10.9339L8.23109 11.9171C8.66741 12.0916 8.92335 12.5464 8.84609 13.0099L8.32022 16.1651L11.4754 15.6393C11.939 15.562 12.3938 15.8179 12.5683 16.2543L13.5514 18.7121L15.6737 16.5898L15.3767 13.9164L15.5858 13.7443C16.1749 13.2594 16.9166 12.5185 17.965 11.4701C18.9102 10.525 19.4343 9.25716 19.7128 8.00923C19.9906 6.76446 20.0153 5.57858 19.9916 4.84137C19.9852 4.64496 19.8404 4.50017 19.644 4.49383C18.9068 4.47003 17.7209 4.49473 16.4761 4.77257Z" fill="#F3CE92"/>
<path fill-rule="evenodd" clip-rule="evenodd" d="M8.31808 21.0748C8.12282 20.8796 8.12282 20.563 8.31808 20.3677L10.4394 18.2464C10.6347 18.0512 10.9513 18.0512 11.1465 18.2464C11.3418 18.4417 11.3418 18.7583 11.1465 18.9535L9.02519 21.0748C8.82992 21.2701 8.51334 21.2701 8.31808 21.0748Z" fill="#F3CE92"/>
<path fill-rule="evenodd" clip-rule="evenodd" d="M3.36837 16.1251C3.17311 15.9299 3.17311 15.6133 3.36837 15.418L5.48969 13.2967C5.68496 13.1015 6.00154 13.1015 6.1968 13.2967C6.39206 13.492 6.39206 13.8086 6.1968 14.0038L4.07548 16.1251C3.88022 16.3204 3.56363 16.3204 3.36837 16.1251Z" fill="#F3CE92"/>
<path fill-rule="evenodd" clip-rule="evenodd" d="M4.42721 20.0123C4.23195 19.8171 4.23195 19.5005 4.42721 19.3052L6.54853 17.1839C6.74379 16.9887 7.06037 16.9887 7.25564 17.1839C7.4509 17.3792 7.4509 17.6958 7.25564 17.891L5.13432 20.0123C4.93905 20.2076 4.62247 20.2076 4.42721 20.0123Z" fill="#F3CE92"/>
</svg>
