<svg width="18" height="18" viewBox="0 0 18 18" fill="none" xmlns="http://www.w3.org/2000/svg">
<path d="M0.354775 14.6963C2.02127 15.7538 3.96077 16.3125 5.96327 16.3125C8.89577 16.3125 11.583 15.186 13.5308 13.1408C15.3945 11.1833 16.4198 8.553 16.3688 5.88375C17.0753 5.27925 17.9063 4.125 17.9063 3C17.9063 2.56875 17.4383 2.295 17.0588 2.51475C16.395 2.90475 15.7898 3.00675 15.1673 2.832C13.896 1.593 12.0038 1.332 10.4093 2.1915C9.01577 2.9415 8.24102 4.314 8.31077 5.814C5.95652 5.52675 3.78152 4.34625 2.26502 2.51175C2.01602 2.2125 1.54352 2.24775 1.34552 2.58675C0.615025 3.83775 0.622525 5.2875 1.25777 6.45825C0.955525 6.5115 0.768775 6.76575 0.768775 7.041C0.768775 8.21775 1.29827 9.29925 2.15102 10.0373C1.99202 10.1903 1.93952 10.4175 2.00702 10.62C2.38202 11.7465 3.23102 12.627 4.29227 13.068C3.13802 13.6193 1.86152 13.803 0.725275 13.6635C0.137275 13.584 -0.152975 14.3745 0.354775 14.6963ZM6.11702 13.2608C6.53778 12.9375 6.31427 12.264 5.78627 12.2528C4.85628 12.2333 4.00952 11.775 3.48228 11.0543C3.73652 11.0378 3.99977 10.9988 4.25027 10.9313C4.82102 10.7768 4.79402 9.95325 4.21427 9.837C3.16202 9.6255 2.33627 8.859 2.02652 7.872C2.30927 7.94175 2.59727 7.98075 2.88452 7.986C3.45377 7.989 3.66902 7.25925 3.20477 6.954C2.15852 6.26475 1.71227 5.0475 2.00777 3.903C3.83477 5.754 6.31352 6.86925 8.93552 6.99525C9.31127 7.0185 9.59328 6.66525 9.51077 6.3075C9.15452 4.76325 10.017 3.681 10.9433 3.18225C11.8598 2.68725 13.3313 2.53275 14.4593 3.71625C14.7945 4.0695 15.9255 4.083 16.5008 3.94875C16.2428 4.43475 15.846 4.896 15.4748 5.1555C15.3165 5.2665 15.2258 5.451 15.2355 5.64375C15.3563 8.1075 14.4383 10.557 12.717 12.3638C10.983 14.184 8.58527 15.1868 5.96403 15.1868C4.92153 15.1868 3.89927 15.0173 2.93327 14.6903C4.08827 14.4668 5.18552 13.9778 6.11702 13.2608Z" fill="#A0A0AB"/>
</svg>
