<svg width="18" height="18" viewBox="0 0 18 18" fill="none" xmlns="http://www.w3.org/2000/svg">
<path d="M6.28497 9L8.09247 10.815L11.715 7.185" stroke="#A0A0AB" stroke-width="1.5" stroke-linecap="round" stroke-linejoin="round"/>
<path d="M8.06247 1.8375C8.57997 1.395 9.42747 1.395 9.95247 1.8375L11.1375 2.8575C11.3625 3.0525 11.7825 3.21 12.0825 3.21H13.3575C14.1525 3.21 14.805 3.8625 14.805 4.6575V5.9325C14.805 6.225 14.9625 6.6525 15.1575 6.8775L16.1775 8.0625C16.62 8.58 16.62 9.4275 16.1775 9.9525L15.1575 11.1375C14.9625 11.3625 14.805 11.7825 14.805 12.0825V13.3575C14.805 14.1525 14.1525 14.805 13.3575 14.805H12.0825C11.79 14.805 11.3625 14.9625 11.1375 15.1575L9.95247 16.1775C9.43497 16.62 8.58747 16.62 8.06247 16.1775L6.87747 15.1575C6.65247 14.9625 6.23247 14.805 5.93247 14.805H4.63497C3.83997 14.805 3.18747 14.1525 3.18747 13.3575V12.075C3.18747 11.7825 3.02997 11.3625 2.84247 11.1375L1.82997 9.945C1.39497 9.4275 1.39497 8.5875 1.82997 8.07L2.84247 6.8775C3.02997 6.6525 3.18747 6.2325 3.18747 5.94V4.65C3.18747 3.855 3.83997 3.2025 4.63497 3.2025H5.93247C6.22497 3.2025 6.65247 3.045 6.87747 2.85L8.06247 1.8375Z" stroke="#A0A0AB" stroke-width="1.5" stroke-linecap="round" stroke-linejoin="round"/>
</svg>
